ffmpeg version 3.4.8-0ubuntu0.2 Copyright (c) 2000-2020 the FFmpeg developers
  built with gcc 7 (Ubuntu 7.5.0-3ubuntu1~18.04)
  configuration: --prefix=/usr --extra-version=0ubuntu0.2 --toolchain=hardened --libdir=/usr/lib/x86_64-linux-gnu --incdir=/usr/include/x86_64-linux-gnu --enable-gpl --disable-stripping --enable-avresample --enable-avisynth --enable-gnutls --enable-ladspa --enable-libass --enable-libbluray --enable-libbs2b --enable-libcaca --enable-libcdio --enable-libflite --enable-libfontconfig --enable-libfreetype --enable-libfribidi --enable-libgme --enable-libgsm --enable-libmp3lame --enable-libmysofa --enable-libopenjpeg --enable-libopenmpt --enable-libopus --enable-libpulse --enable-librubberband --enable-librsvg --enable-libshine --enable-libsnappy --enable-libsoxr --enable-libspeex --enable-libssh --enable-libtheora --enable-libtwolame --enable-libvorbis --enable-libvpx --enable-libwavpack --enable-libwebp --enable-libx265 --enable-libxml2 --enable-libxvid --enable-libzmq --enable-libzvbi --enable-omx --enable-openal --enable-opengl --enable-sdl2 --enable-libdc1394 --enable-libdrm --enable-libiec61883 --enable-chromaprint --enable-frei0r --enable-libopencv --enable-libx264 --enable-shared
  libavutil      55. 78.100 / 55. 78.100
  libavcodec     57.107.100 / 57.107.100
  libavformat    57. 83.100 / 57. 83.100
  libavdevice    57. 10.100 / 57. 10.100
  libavfilter     6.107.100 /  6.107.100
  libavresample   3.  7.  0 /  3.  7.  0
  libswscale      4.  8.100 /  4.  8.100
  libswresample   2.  9.100 /  2.  9.100
  libpostproc    54.  7.100 / 54.  7.100
[rawvideo @ 0x560c233aca20] Estimating duration from bitrate, this may be inaccurate
Input #0, rawvideo, from '../../SVC-Encoder-20220109T061506Z-001/SVC-Encoder/Dataset/RollerCoaster/6f_2x2/tile_yuv/f0_t1_480x480.yuv':
  Duration: 00:00:10.00, start: 0.000000, bitrate: 82944 kb/s
    Stream #0:0: Video: rawvideo (I420 / 0x30323449), yuv420p, 480x480, 82944 kb/s, 30 tbr, 30 tbn, 30 tbc
Stream mapping:
  Stream #0:0 -> #0:0 (rawvideo (native) -> h264 (libx264))
Press [q] to stop, [?] for help
[libx264 @ 0x560c233b9c60] using cpu capabilities: MMX2 SSE2Fast LZCNT SSSE3 SSE4.2 AVX
[libx264 @ 0x560c233b9c60] profile High, level 3.0
Output #0, rawvideo, to 'RollerCoaster_f0_t1_480x480_x264_QP_28.h264':
  Metadata:
    encoder         : Lavf57.83.100
    Stream #0:0: Video: h264 (libx264), yuv420p, 480x480, q=-1--1, 30 fps, 30 tbn, 30 tbc
    Metadata:
      encoder         : Lavc57.107.100 libx264
    Side data:
      cpb: bitrate max/min/avg: 0/0/0 buffer size: 0 vbv_delay: -1
frame=  300 fps=0.0 q=34.0 LPSNR=Y:inf U:inf V:inf *:inf size=      30kB time=00:00:09.93 bitrate=  25.1kbits/s speed=22.8x    
video:30kB audio:0kB subtitle:0kB other streams:0kB global headers:0kB muxing overhead: 0.000000%
[libx264 @ 0x560c233b9c60] frame I:2     Avg QP:26.86  size:  1561  PSNR Mean Y:51.35 U:51.76 V:52.80 Avg:51.60 Global:51.59
[libx264 @ 0x560c233b9c60] frame P:80    Avg QP:28.37  size:   226  PSNR Mean Y:50.27 U:50.84 V:51.65 Avg:50.55 Global:50.47
[libx264 @ 0x560c233b9c60] frame B:218   Avg QP:33.49  size:    46  PSNR Mean Y:50.10 U:50.90 V:51.63 Avg:50.43 Global:50.35
[libx264 @ 0x560c233b9c60] consecutive B-frames:  1.7%  3.3%  3.0% 92.0%
[libx264 @ 0x560c233b9c60] mb I  I16..4: 63.4% 35.5%  1.1%
[libx264 @ 0x560c233b9c60] mb P  I16..4:  2.2%  1.6%  0.0%  P16..4:  2.7%  0.8%  0.2%  0.0%  0.0%    skip:92.6%
[libx264 @ 0x560c233b9c60] mb B  I16..4:  0.0%  0.0%  0.0%  B16..8:  1.6%  0.1%  0.0%  direct: 0.0%  skip:98.2%  L0:33.7% L1:62.3% BI: 4.0%
[libx264 @ 0x560c233b9c60] 8x8 transform intra:39.4% inter:62.3%
[libx264 @ 0x560c233b9c60] coded y,uvDC,uvAC intra: 2.7% 11.7% 1.5% inter: 0.2% 0.3% 0.0%
[libx264 @ 0x560c233b9c60] i16 v,h,dc,p: 51% 28% 13%  8%
[libx264 @ 0x560c233b9c60] i8 v,h,dc,ddl,ddr,vr,hd,vl,hu:  8% 11% 78%  0%  0%  2%  0%  0%  0%
[libx264 @ 0x560c233b9c60] i4 v,h,dc,ddl,ddr,vr,hd,vl,hu: 18% 21% 32%  3%  6% 10%  5%  2%  3%
[libx264 @ 0x560c233b9c60] i8c dc,h,v,p: 80% 11%  8%  1%
[libx264 @ 0x560c233b9c60] Weighted P-Frames: Y:2.5% UV:0.0%
[libx264 @ 0x560c233b9c60] ref P L0: 76.3% 10.8% 10.6%  2.3%  0.0%
[libx264 @ 0x560c233b9c60] ref B L0: 88.6% 10.3%  1.0%
[libx264 @ 0x560c233b9c60] ref B L1: 90.5%  9.5%
[libx264 @ 0x560c233b9c60] PSNR Mean Y:50.153 U:50.890 V:51.642 Avg:50.472 Global:50.387 kb/s:24.90
